<svg id="Layer_1" data-name="Layer 1" xmlns="http://www.w3.org/2000/svg" viewBox="0 0 238.527 57.9764"><defs><style>.cls-1{fill:#175e9a;}.cls-2{fill:#fff;}.cls-3,.cls-4{fill:#f2951a;stroke:#fff;}.cls-3{stroke-width:0.5591px;}.cls-4{stroke-width:0.5521px;fill-rule:evenodd;}</style></defs><title>onlinelogo_blaa</title><g id="I"><polygon class="cls-1" points="120.713 55.168 131.916 12.378 142.864 12.378 131.862 55.168 120.713 55.168"/><path class="cls-2" d="M321.1006,380.3477L310.2412,422.585H299.6631l11.0586-42.2373h10.3789m0.7119-.5523H310.2959l-0.1084.4126-11.0586,42.2373-0.1811.6914h11.7211l0.1075-.414,10.8584-42.2373,0.1777-.69h0Z" transform="translate(-178.5931 -367.6938)"/></g><g id="L"><polygon class="cls-1" points="138.172 55.168 146.503 23.29 157.656 23.29 149.326 55.168 138.172 55.168"/><path class="cls-2" d="M335.8916,391.26l-8.1855,31.3252h-10.584l8.1865-31.3252h10.583m0.7148-.5523H324.8818l-0.1074.4126-8.1865,31.3252-0.1807.6914h11.7256l0.1074-.4121,8.1856-31.3252,0.1806-.6919h0Z" transform="translate(-178.5931 -367.6938)"/></g><g id="N"><path class="cls-1" d="M359.3721,422.8613l4.7373-18.1318a32.8934,32.8934,0,0,0,1.0215-4.6807,2.7605,2.7605,0,0,0-1.0918-2.3325,5.0886,5.0886,0,0,0-3.167-.8721,10.6745,10.6745,0,0,0-5.0293,1.53,11.8058,11.8058,0,0,0-4.36,4.0352,29.7847,29.7847,0,0,0-2.6211,7.3857L345.45,422.8613H334.3l8.33-31.8774h10.5957l-0.94,3.71a28.5163,28.5163,0,0,1,6.4882-3.3281,21.6738,21.6738,0,0,1,6.9659-1.12,12.2583,12.2583,0,0,1,7.7871,2.2715,7.4218,7.4218,0,0,1,2.8867,6.0864,30.17,30.17,0,0,1-1.2256,6.3242l-4.6621,17.9336H359.3721Z" transform="translate(-178.5931 -367.6938)"/><path class="cls-2" d="M365.7393,390.5215a11.9361,11.9361,0,0,1,7.6152,2.2119,7.1232,7.1232,0,0,1,2.7822,5.87,30.318,30.318,0,0,1-1.2158,6.2539l-4.6094,17.7276h-10.582l4.6465-17.7862a32.2579,32.2579,0,0,0,1.0312-4.75,3.0465,3.0465,0,0,0-1.1992-2.5508,5.3265,5.3265,0,0,0-3.3359-.93,10.89,10.89,0,0,0-5.1621,1.5634,12.02,12.02,0,0,0-4.461,4.13q-1.1822,1.83-2.6543,7.4629l-3.3574,12.86h-10.58l8.1856-31.3252h10.0283l-1.0322,4.0693a29.1032,29.1032,0,0,1,7.0234-3.7021,21.3087,21.3087,0,0,1,6.877-1.1055m0-.5523a21.9544,21.9544,0,0,0-7.0538,1.1348,27.8761,27.8761,0,0,0-5.9589,2.9722l0.68-2.6807,0.1748-.688H342.416l-0.1074.4126-8.1856,31.3252-0.1806.6914h11.7217l0.1074-.4121,3.3574-12.86a29.5608,29.5608,0,0,1,2.584-7.3028,11.539,11.539,0,0,1,4.2637-3.9463,10.4087,10.4087,0,0,1,4.8955-1.4946,4.8289,4.8289,0,0,1,2.998.814,2.5015,2.5015,0,0,1,.9854,2.1142,30.1612,30.1612,0,0,1-1.0137,4.6123l-4.6465,17.7842-0.1807.6914h11.7237l0.1074-.4131,4.6094-17.7275a30.309,30.309,0,0,0,1.2334-6.3926,7.6839,7.6839,0,0,0-2.99-6.3022,12.5216,12.5216,0,0,0-7.9589-2.3321h0Z" transform="translate(-178.5931 -367.6938)"/></g><g id="E"><path class="cls-1" d="M396.8418,423.5986c-5.3008,0-9.6758-1.3652-13.0049-4.0576a13.2456,13.2456,0,0,1-5.042-10.791,17.0657,17.0657,0,0,1,4.5313-11.627c4.0918-4.5639,10.0039-6.8774,17.5722-6.8774,4.835,0,8.7412,1.2173,11.6075,3.6182,2.8789,2.415,4.3388,5.8354,4.3388,10.1665a19.5012,19.5012,0,0,1-.749,5.5957l-0.06.1972H389.541c-0.0127.2032-.0185,0.3663-0.0185,0.4913a6.0786,6.0786,0,0,0,2.1347,4.833,7.815,7.815,0,0,0,5.26,1.8515,9.1615,9.1615,0,0,0,7.9941-4.2431l0.0957-.1416,10.0625,1.3457-0.2177.36a17.9785,17.9785,0,0,1-7.5078,6.9639A23.5221,23.5221,0,0,1,396.8418,423.5986Zm9.8066-19.49c0.0147-.2412.0215-0.4346,0.0215-0.5791a6.4167,6.4167,0,0,0-1.8623-5.0166,7.3568,7.3568,0,0,0-5.0508-1.6685,9.2435,9.2435,0,0,0-5.7158,1.92,9.5366,9.5366,0,0,0-3.334,5.3438h15.9414Z" transform="translate(-178.5931 -367.6938)"/><path class="cls-2" d="M400.8984,390.5215q7.191,0,11.4307,3.5537,4.2393,3.5566,4.2393,9.9551a19.1513,19.1513,0,0,1-.7373,5.5166H389.2842c-0.0264.3349-.0381,0.59-0.0381,0.7676a6.3194,6.3194,0,0,0,2.2314,5.0429,8.0529,8.0529,0,0,0,5.44,1.918A9.3857,9.3857,0,0,0,405.14,412.91l9.4756,1.2675a17.637,17.637,0,0,1-7.3935,6.8594,23.154,23.154,0,0,1-10.38,2.2852q-7.89,0-12.8311-3.9961a12.9244,12.9244,0,0,1-4.9394-10.5762,16.7253,16.7253,0,0,1,4.4609-11.4434q6.0835-6.7851,17.3662-6.7851m-10.5459,13.8633h16.5557c0.0244-.3731.0381-0.6582,0.0381-0.8555a6.6446,6.6446,0,0,0-1.9551-5.2227,7.5915,7.5915,0,0,0-5.2344-1.7382,9.4706,9.4706,0,0,0-5.8828,1.9765,9.9221,9.9221,0,0,0-3.5215,5.84m10.5459-14.4156c-7.65,0-13.6308,2.3448-17.7773,6.9688a17.3386,17.3386,0,0,0-4.6016,11.812,13.51,13.51,0,0,0,5.1446,11.0059c3.3789,2.7324,7.8125,4.1181,13.1777,4.1181a23.8129,23.8129,0,0,0,10.624-2.3418,18.2552,18.2552,0,0,0,7.6221-7.0693l0.4355-.7207-0.8349-.1113-9.4756-1.2676-0.3389-.0459-0.1914.2832a8.7915,8.7915,0,0,1-7.7656,4.123,7.55,7.55,0,0,1-5.0791-1.7841,5.7447,5.7447,0,0,1-2.04-4.625c0-.0616.0019-0.1338,0.0048-0.2159h26.4385l0.1182-.3925a19.779,19.779,0,0,0,.7607-5.6758c0-4.417-1.4922-7.9082-4.4365-10.378-2.918-2.4438-6.8828-3.6831-11.7852-3.6831h0ZM391.07,403.833a9.1068,9.1068,0,0,1,3.1377-4.8486,8.9747,8.9747,0,0,1,5.5488-1.8638,7.0926,7.0926,0,0,1,4.8672,1.5982,6.1528,6.1528,0,0,1,1.77,4.81c0,0.084-.0029.1855-0.0078,0.3037H391.07Z" transform="translate(-178.5931 -367.6938)"/></g><ellipse class="cls-3" cx="153.6652" cy="15.0069" rx="5.751" ry="5.3584"/><path class="cls-4" d="M178.8154,425.4727c19.63-19.1768,35.583-27.6924,45.3633-32.0528-1.7773,3.4756-3.8379,17.375-3.8379,17.375s30.709-25.6787,84.0918-29.541c-3.3125-.2949-6.6377-0.4307-9.9433-0.4307-29.2432,0-57.1289,10.6006-63.9551,14.8379a34.9539,34.9539,0,0,1,5.083-14.1826S207.6221,386.3359,178.8154,425.4727Z" transform="translate(-178.5931 -367.6938)"/><g id="N-2" data-name="N"><path class="cls-1" d="M282.0674,422.8613l4.7348-18.1318a29.2905,29.2905,0,0,0,1.0235-4.6807,2.769,2.769,0,0,0-1.09-2.333,5.099,5.099,0,0,0-3.1684-.8716,10.67,10.67,0,0,0-5.0288,1.53,11.7843,11.7843,0,0,0-4.3628,4.0352,29.9046,29.9046,0,0,0-2.6206,7.3857l-3.4073,13.0664H256.9932l8.33-31.8774h10.5987l-0.9434,3.7095a28.5275,28.5275,0,0,1,6.49-3.3277,21.6643,21.6643,0,0,1,6.9658-1.12,12.2428,12.2428,0,0,1,7.7851,2.2715,7.4213,7.4213,0,0,1,2.8877,6.0864,30.2082,30.2082,0,0,1-1.2261,6.3242L293.22,422.8613H282.0674Z" transform="translate(-178.5931 -367.6938)"/><path class="cls-2" d="M288.4346,390.5215a11.9229,11.9229,0,0,1,7.6133,2.2119,7.1243,7.1243,0,0,1,2.7832,5.87,30.3428,30.3428,0,0,1-1.2168,6.2539l-4.6075,17.7276h-10.582l4.6445-17.7862a31.7555,31.7555,0,0,0,1.0323-4.75,3.0547,3.0547,0,0,0-1.1963-2.5508,5.3406,5.3406,0,0,0-3.3379-.93,10.8938,10.8938,0,0,0-5.1621,1.5634,12.01,12.01,0,0,0-4.4629,4.13q-1.1778,1.83-2.6543,7.4629l-3.3535,12.86h-10.584l8.1865-31.3252h10.03l-1.0352,4.0693a29.0945,29.0945,0,0,1,7.0254-3.7021,21.2955,21.2955,0,0,1,6.877-1.1055m0-.5523a21.95,21.95,0,0,0-7.0542,1.1348,27.862,27.862,0,0,0-5.9595,2.9717l0.6816-2.68,0.1748-.6885H265.1108l-0.1079.4126-8.1865,31.3252-0.1807.6914h11.7256l0.1075-.4121,3.3535-12.86a29.7148,29.7148,0,0,1,2.5844-7.3038,11.5281,11.5281,0,0,1,4.2647-3.9453,10.412,10.412,0,0,1,4.896-1.4946,4.8383,4.8383,0,0,1,3,.814,2.5075,2.5075,0,0,1,.9819,2.1142,28.982,28.982,0,0,1-1.0141,4.6114l-4.6446,17.7851-0.1806.6914h11.7236l0.1074-.4131,4.6074-17.7275a30.3408,30.3408,0,0,0,1.2344-6.3926,7.6846,7.6846,0,0,0-2.9912-6.3022,12.5054,12.5054,0,0,0-7.957-2.3321h0Z" transform="translate(-178.5931 -367.6938)"/></g><path class="cls-1" d="M223.0615,423.7627c-5.7934,0-10.729-1.1523-14.67-3.4238a20.3255,20.3255,0,0,1-8.4336-8.5118c-0.1836-.375-0.352-0.7509-0.5151-1.125l-0.0869-.2011,0.1757-.1309c3.5708-2.6494,7.209-5.1113,10.8135-7.3183l0.3613-.2217,0.0562,0.42a11.85,11.85,0,0,0,3.6606,7.1465,13.98,13.98,0,0,0,10.0328,3.6367,18.4154,18.4154,0,0,0,9.7612-2.8906,21.9336,21.9336,0,0,0,7.7588-8.7764,30.7707,30.7707,0,0,0,1.2978-2.84l0.04-.1,0.0966-.0469c4.6255-2.22,9.4649-4.2608,14.3829-6.0659l0.4106-.1509-0.0405.436a33.0282,33.0282,0,0,1-4.4888,13.6021,32.0177,32.0177,0,0,1-12.6123,12.2666A37.4885,37.4885,0,0,1,223.0615,423.7627Z" transform="translate(-178.5931 -367.6938)"/><path class="cls-2" d="M257.8887,393.5732a32.6127,32.6127,0,0,1-4.4522,13.4893,31.6022,31.6022,0,0,1-12.5049,12.1621,37.0466,37.0466,0,0,1-17.87,4.2617q-8.66,0-14.5322-3.3867a19.9657,19.9657,0,0,1-8.3232-8.3935c-0.1817-.3711-0.3487-0.7432-0.51-1.1143q5.37-3.9844,10.793-7.3047a12.06,12.06,0,0,0,3.7431,7.3086,14.1841,14.1841,0,0,0,10.2237,3.7139,18.6044,18.6044,0,0,0,9.9062-2.9317,22.1063,22.1063,0,0,0,7.8584-8.8838,31.1908,31.1908,0,0,0,1.31-2.8652c4.23-2.03,9.0293-4.1,14.3584-6.0557m0.6313-.82-0.8218.3013c-4.9262,1.8086-9.7734,3.853-14.4067,6.0762l-0.1943.0937-0.08.1992a30.4869,30.4869,0,0,1-1.2866,2.8155,21.6675,21.6675,0,0,1-7.6587,8.6689,18.1426,18.1426,0,0,1-9.6162,2.85,13.7117,13.7117,0,0,1-9.8423-3.5615,11.5751,11.5751,0,0,1-3.5772-6.9824l-0.1128-.84-0.7226.4424c-3.6118,2.2109-7.2564,4.6777-10.834,7.332l-0.3521.2608,0.1748,0.4023c0.1646,0.3789.335,0.7588,0.52,1.1377a20.6014,20.6014,0,0,0,8.5434,8.6289c3.9834,2.2959,8.9658,3.46,14.8081,3.46a37.767,37.767,0,0,0,18.1323-4.3272,32.2965,32.2965,0,0,0,12.72-12.37,33.3159,33.3159,0,0,0,4.5249-13.7163l0.0815-.8711h0Z" transform="translate(-178.5931 -367.6938)"/><path class="cls-1" d="M197.5024,400.7813a36.8324,36.8324,0,0,1,8.2613-21.5367,31.45,31.45,0,0,1,11.229-8.2466,37.5411,37.5411,0,0,1,15.4048-3.0278c7.6933,0,14.0014,2.0928,18.7485,6.2207a20.1178,20.1178,0,0,1,6.1064,9.2183l0.0879,0.2783-0.2827.0723c-4.12,1.0542-8.1855,2.2583-12.0835,3.5786l-0.2871.0976-0.07-.2954a11.4234,11.4234,0,0,0-3.4058-5.9282,14.077,14.077,0,0,0-9.8276-3.5146,18.196,18.196,0,0,0-14.97,7.395,29.8856,29.8856,0,0,0-2.4463,3.667l-0.0342.061-0.06.0371a115.1518,115.1518,0,0,0-15.9106,12.1362l-0.48.4336Z" transform="translate(-178.5931 -367.6938)"/><path class="cls-2" d="M232.3975,368.2461q11.4916,0,18.5673,6.1533a19.7559,19.7559,0,0,1,6.0245,9.0928c-4.4278,1.1328-8.4981,2.3633-12.1036,3.5849a11.6383,11.6383,0,0,0-3.4882-6.0683,14.28,14.28,0,0,0-10.0137-3.5869,18.3838,18.3838,0,0,0-15.1875,7.501,30.0026,30.0026,0,0,0-2.4688,3.7011,114.9626,114.9626,0,0,0-15.9492,12.1651,36.5542,36.5542,0,0,1,8.1953-21.3653,31.04,31.04,0,0,1,11.1319-8.1738,37.0984,37.0984,0,0,1,15.292-3.0039m0-.5523a37.8128,37.8128,0,0,0-15.5176,3.0523,31.7246,31.7246,0,0,0-11.3262,8.3193,37.1044,37.1044,0,0,0-8.3271,21.7071l-0.0381,1.2939,0.96-.8682a114.9269,114.9269,0,0,1,15.8726-12.1064l0.1186-.0742,0.0689-.1221a29.6226,29.6226,0,0,1,2.4233-3.6333,17.9323,17.9323,0,0,1,14.752-7.2881,13.81,13.81,0,0,1,9.6416,3.4424,11.1525,11.1525,0,0,1,3.3232,5.7881l0.14,0.59,0.5747-.1948c3.8911-1.3184,7.95-2.52,12.063-3.5728l0.5654-.145-0.1758-.5566a20.3832,20.3832,0,0,0-6.1885-9.3428c-4.7988-4.1733-11.1674-6.2891-18.93-6.2891h0Z" transform="translate(-178.5931 -367.6938)"/></svg>